<?xml version="1.0" encoding="iso-8859-1"?>
<!-- Generator: Adobe Illustrator 19.0.0, SVG Export Plug-In . SVG Version: 6.00 Build 0)  -->
<svg version="1.1" id="Layer_1" xmlns="http://www.w3.org/2000/svg" xmlns:xlink="http://www.w3.org/1999/xlink" x="0px" y="0px"
	 viewBox="0 0 496.2 496.2" style="enable-background:new 0 0 496.2 496.2;" xml:space="preserve">
<path style="fill:#A3D5E0;" d="M496.2,248.1C496.2,111.1,385.1,0,248.1,0S0,111.1,0,248.1s111.1,248.1,248.1,248.1
	S496.2,385.1,496.2,248.1z"/>
<path style="fill:#E09765;" d="M312.4,357.8l0.2,0.1C312.6,357.4,312.5,357.4,312.4,357.8z"/>
<path style="fill:#D18B5A;" d="M312.4,357.8l-140-59.3c0.5,9.5,0.5,21.4,0.3,34.3c-0.8,49.8-5.6,114.3-5.6,114.3
	c7.3,17.9,16.3,31.9,26,43c17.7,4,36.1,6.1,55,6.1c20.8,0,40.9-2.6,60.2-7.4c-3.1-4.2-5.7-7.3-5.7-7.3
	C297.2,453.7,310.6,363.6,312.4,357.8z"/>
<path style="fill:#B27246;" d="M312.6,357.9l-2.4,14.9c-51.5,42.4-135.5-27.9-137.8-74.3L312.6,357.9z"/>
<g>
	<path style="fill:#020403;" d="M343,303.9c9.3,0.9,20.6-3.9,23.2-13.5c1.2-4.4-1.1-7.9-5.2-9.4c-3.3-1.2-3.6-0.7-4.5-4.6
		c-1.1-4.6-0.8-9.7-0.1-14.3c0.5-3.2-4.3-4.5-4.8-1.3c-1,6.8-3,21.7,5.6,24.4c2.2,0.7,4.8,0.4,4.2,3.9c-0.4,2.7-2.5,4.9-4.6,6.4
		c-3.9,2.8-9,3.9-13.7,3.4C339.8,298.6,339.8,303.6,343,303.9L343,303.9z"/>
	<path style="fill:#020403;" d="M362.3,264.6c-4.2,4.6-5.2,8.4-2.6,14c3.1,6.6-0.7,15.8-3,22.1c-1.1,3,3.7,4.3,4.8,1.3
		c2.3-6.1,4-12.1,4.1-18.7c0-2.3-0.2-4.3-1.2-6.4c-1.7-3.8-1.7-5.5,1.4-8.8C368,265.8,364.4,262.3,362.3,264.6L362.3,264.6z"/>
	<path style="fill:#020403;" d="M361,251.9c15.8,1.3,13.6,22.8,1.7,28.3c-2.9,1.4-0.4,5.7,2.5,4.3c16.9-7.9,16.2-36-4.3-37.7
		C357.8,246.6,357.8,251.6,361,251.9L361,251.9z"/>
	<path style="fill:#020403;" d="M363.5,312.4c0.6-9.9-4.9-17.7-8.1-26.7c-1.1-3-5.9-1.7-4.8,1.3c3,8.5,8.5,16,7.9,25.3
		C358.3,315.6,363.3,315.6,363.5,312.4L363.5,312.4z"/>
	<path style="fill:#020403;" d="M350.8,309.2c12.3-10.6,18.7-29.6,15.6-45.4c-0.6-3.2-5.4-1.8-4.8,1.3c2.7,14.2-3.4,31.2-14.4,40.6
		C344.8,307.7,348.4,311.3,350.8,309.2L350.8,309.2z"/>
	<path style="fill:#020403;" d="M369.4,267.1c2.4-11.5,0-23.4-4-34.3c-1.1-3-5.9-1.7-4.8,1.3c3.7,10,6.2,21,4,31.7
		C364,268.9,368.8,270.2,369.4,267.1L369.4,267.1z"/>
	<path style="fill:#020403;" d="M352.9,257.7c2.2,3,4.5,5.9,6.3,9.1c2.6,4.6,1.4,9.6,1.3,14.6c-0.1,3.6,1.2,7.5,1.9,11.1
		c0.9,4.5,1.9,9.1,2.8,13.6c0.6,3.2,5.5,1.8,4.8-1.3c-1.8-9.1-5-18.8-4.2-28.1c0.8-8.9-3.6-14.6-8.5-21.4
		C355.3,252.5,351,255,352.9,257.7L352.9,257.7z"/>
	<path style="fill:#020403;" d="M362.9,230.2c5.2,9.3,8.4,18,7.7,28.7c-0.3,5-0.1,10-0.8,15c-0.8,5.4-3.4,7.9-7.6,10.9
		c-2.1,1.6-4.6,4.2-4.7,7c-0.1,1.9,0.3,3.6,0.7,5.5c0.9,3.4-1.1,5.2-3.5,7c-2.5,1.8-4.6,4.3-4.7,7.5c-0.1,4.5,2.6,6.7,4.1,10.7
		c1.1,3,6,1.7,4.8-1.3c-1.5-4.1-6.4-8.3-2-12.3c2.8-2.6,5.4-3.9,6.4-7.8c1.4-5-3-8.7,2.3-12.6c3-2.2,5.5-4,7.2-7.5
		c3.8-7.6,2.8-18.8,2.8-27c0.1-9.6-3.9-18.2-8.5-26.4C365.6,224.8,361.3,227.4,362.9,230.2L362.9,230.2z"/>
	<path style="fill:#020403;" d="M357.2,240.3c4.2,8.2,5.8,17.5,7.8,26.4c1.1,5.2,1.6,9.5,0.4,14.8c-1.2,5.1-3.3,9.9-4.7,14.9
		c-0.3,1.1,0.2,2.3,1.1,2.8c2.6,1.5,5.3,1.7,8.3,2c3.2,0.3,3.2-4.7,0-5c-2-0.2-3.9-0.3-5.7-1.3c0.4,0.9,0.8,1.9,1.1,2.8
		c3.1-10.7,7.2-19.5,4.7-30.8c-2.2-9.9-3.9-20-8.6-29.1C360,234.9,355.7,237.5,357.2,240.3L357.2,240.3z"/>
	<path style="fill:#020403;" d="M348.5,316.1c1.5-12.8,14.7-21,18-33.4c1.1-4.1,1.4-8.4,2.1-12.5c0.8-4.7,2-9.3,2.7-14
		c1-7.2-2.5-11.5-6.1-17.3c-1.7-2.8-6-0.2-4.3,2.5c1.4,2.3,3.1,4.5,4.4,6.9c2.4,4.1,0.8,9.1-0.1,13.4c-1.5,7.8-1.8,16.7-5,24
		c-4.8,10.8-15.3,18.1-16.7,30.4C343.2,319.3,348.2,319.2,348.5,316.1L348.5,316.1z"/>
</g>
<path style="fill:#D18B5A;" d="M370.1,161.6c9.1,12.2,5.6,50.1-7.3,87.4c0,0,3,25.9-12.9,49.5c0,0-20.4,42.6-34.3,59.4
	c0,0-7.2,18.4-25.2,20.3c0,0-22.3,7.4-66-18c0,0-61.4-32-57.4-91.2c0,0-18.8,6.9-28.9-31.1c0,0-2.5-48.8,11.2-52.3
	c0,0,30.5,12.2,35,2.5c0,0,6.6-13.7,17.8-20.3c0,0,9.1-9.1,13.2-21.3c0,0,10.7-13.7,22.3-14.7c0,0,37.6,0.5,46.2-1.5
	c0,0,17.3,1,24.9,1.5C308.7,131.6,361,149.4,370.1,161.6z"/>
<path style="fill:#020403;" d="M288.2,212c0,0,0.3,8.1-4.7,8.1c0,0-16.3-3-22-7.1c0,0-16.9-10.5-21.7-11.5c0,0-7.4-0.3-11.9,1.4
	l-11.2,5.4c0,0-3,2-4.1,0.3c0,0-0.3-4.1,3.7-6.4l17.6-8.1c0,0,6.1-3,12.2-1C246.2,193.1,280.4,206.3,288.2,212z"/>
<path style="fill:#FAEFDD;" d="M256.9,236.9c-3.6,1.6-3,1.3-11.7,2.4c0,0-16.8-3.4-20-14.4c0,0,27.4-12.6,37.3,1.2
	C264.5,228.8,260.4,235.3,256.9,236.9z"/>
<g>
	<path style="fill:#020403;" d="M268.6,230.4c0,0-12.5-28.4-47.2-8.5c0,0,6.2,2.5,5.8,3.6c0,0,19-12.4,38.2,2.9
		C266.8,229.5,267.7,230.1,268.6,230.4z"/>
	<circle style="fill:#020403;" cx="245.1" cy="225.3" r="8.3"/>
</g>
<path style="fill:#FAEFDD;" d="M353.4,239l-1.3,6.6l-10.9,5.6l-13.7-5.3l-5.3-4.3c0,0-0.1-1.4,1.1-4.5c1.2-3,3.5-4.7,3.5-4.7
	S346.8,225.1,353.4,239z"/>
<g>
	<path style="fill:#020403;" d="M344.7,237.2c0-4.6-3.6-6.9-8.1-6.9c-4.6,0-8.4,2.3-8.4,6.9c0,4.6,3.7,8.3,8.3,8.3
		C341,245.5,344.7,241.8,344.7,237.2z"/>
	<path style="fill:#020403;" d="M256.9,236.9c0,0-22.2,1.9-29.1-12l-6.9-3.4C220.8,221.5,232.7,250.1,256.9,236.9z"/>
</g>
<path style="fill:#B27247;" d="M166.7,216.8c0,0,0.7-4.4-5.8-3c-6.4,1.4-11.8,3-12.5,9.1s2,10.5,4.7,14.9s6.1,7.8,8.1,9.1
	c2,1.4,7.8,2,7.1-1c-0.7-3-6.1-7.8-7.8-10.8s-1.7-9.8,0-12.5C162.3,219.8,166.7,216.8,166.7,216.8z"/>
<g>
	<path style="fill:#2B120B;" d="M289.2,291.6c0,0,3-4.4-0.3-5.1c0,0-4.9-0.7-8.6,2.4c0,0-1.4,1.7,1.5,1.9
		C281.8,290.7,288,289.2,289.2,291.6z"/>
	<path style="fill:#2B120B;" d="M309.4,290.4c0,0-3.9,3-4.6,3.2l1.9,1.9C306.7,295.5,309.7,295.1,309.4,290.4z"/>
</g>
<g>
	<path style="fill:#B27246;" d="M308,297.9c0,0,8.4-3.4,8-11.3c0,0-0.3-6.5-1.9-10.8C314.1,275.8,323.9,296.5,308,297.9z"/>
	<path style="fill:#B27246;" d="M291.4,268.6c0,0-20.4,1.5-23.7,14.2c-1.4,5.2,1.9,7.8,4.4,10.2
		C272.1,292.9,258.6,277.2,291.4,268.6z"/>
</g>
<path style="fill:#8E2D23;" d="M289.4,321c0,0-6.9-3.2-14.2-3.6c-10-0.5-25.6,1.9-25.9,2.8c-0.2,0.8,0.5,1.5,0.5,1.5
	c4.7,1.9,27.2,6.6,36.5,7.2c10.5,0.7,24.8-0.1,27.5,1.2c2.7,1.4,3.2,2,3.2,2s0.2-0.3-0.4-1.1C313.9,327.7,304.6,318.5,289.4,321z"/>
<path style="fill:#B23725;" d="M296,344.9c-20.1,0.7-40.3-8.7-46.2-23.1c0,0,3.6-0.8,8.3,0.3c8.1,2,19.6,5.1,26.2,6.1
	c10.3,1.5,26.1,0.3,29.7,1.6c3.7,1.3,3,2.5,3,2.5S308.5,344.5,296,344.9z"/>
<g>
	<path style="fill:#020403;" d="M322.1,241.6c0,0,25.4,17.3,31-0.3c0,0,2.5,12.7-9.9,12.4C343.2,253.8,332,254,322.1,241.6z"/>
	<path style="fill:#020403;" d="M359,243.6c0,0-4.6-1.3-7.1-4.1c0,0-11.4-10.8-27.7-4.5l1-3.4c0,0,17.8-8.9,28.4,5.1
		C353.6,236.7,357.4,241.8,359,243.6z"/>
	<path style="fill:#020403;" d="M319,223.2c0,0-1.4,3.6,0,4.6s17.9-1.9,24.7-3.2c6.8-1.4,13.5-3,16.3-2.7c0,0,5.4,4.1,6.3,6.1
		c0,0,3.9-7.4,0-11.2c0,0-2.7-6.9-8-6.6C358.3,210.2,321.2,216.8,319,223.2z"/>
</g>
<path style="fill:#B27246;" d="M314.4,238.6c0,0-5.2,15.1-3.6,27.9L314.4,238.6z"/>
<g>
	<path style="fill:#0E1619;" d="M173.6,375.4l-1.2-67.7l-50.3-13L61.9,396l-9.1,5.1c38.1,48.6,94,82.6,157.9,92.2L167.1,447
		L173.6,375.4z"/>
	<path style="fill:#0E1619;" d="M463.9,370.5c-15.8-5.4-33.6-10.3-53.1-13.9l-77.2-31.5l-43.2,53.1l12.2,103.3l1.8,8.2
		C372.7,473.9,430.2,429.9,463.9,370.5z"/>
</g>
<path style="fill:#020403;" d="M409.7,122c-0.3-2.3-0.6-4.6-1.1-6.8c0.8-0.9,1.1-2.3,0.1-3.5c-0.6-0.7-1.1-1.4-1.5-2.1
	c-1.2-4.3-2.8-8.3-4.6-12c0-6.2-0.8-12.1-5.9-16.9c-1.4-1.3-3.2-0.6-3.9,0.6c-0.2-0.2-0.4-0.3-0.6-0.5c-2.1-2.7-4.2-5.1-6.3-7.3
	c1.7,0.9,3.3,1.9,4.9,3.1c2.6,1.9,5.1-2.4,2.5-4.3c-2.8-2.1-5.9-3.8-9.1-5.1l0,0c-4-5.5-9.9-8-16.4-8.9c-0.8-0.5-1.2-0.8-1.2-0.8
	c-0.5-0.2-1-0.5-1.6-0.7c0.7-0.9,0.8-2.1-0.2-3.1c-9.8-9.3-24.5-12.9-37.1-16.6c-0.3-0.1-0.7-0.1-1-0.1c-4.8-2.8-10.9-3.9-16.6-4.4
	c-9.3-0.9-18.7,0.1-28.1-0.1c-14.5-3.8-29.1-7-44.1-6.5c-0.9,0-1.5,0.5-1.9,1c-9.1-0.8-18.7-0.1-26.3,5.3c-0.3,0.2-0.6,0.5-0.7,0.8
	c-9.5,0.1-20.5,0.9-27.8,6.1c-4.1,1-8,2.5-11.5,4.7c-2,0.9-3.8,2.2-5.5,3.7c-4.9,4.5-9.6,9.3-14.4,13.8c-9.3,8.8-19.1,18.4-26,29.4
	c-1.5,0.2-2.9,0.6-4.1,1.4c-3,1.9-5.6,4.2-8,6.8c-10.1,10.9-16.9,27.4-16.3,42.3c0.1,3.2,5.1,3.2,5,0c-0.7-15.3,7.1-32.2,18.4-42.4
	c0.2-0.2,0.5-0.4,0.7-0.6c-1.2,2.6-2.2,5.2-3,7.9c-0.6,0.6-1.2,1.2-1.9,1.8c-1.3-0.5-2.8-0.1-3.2,1.6c-0.2,0.8-0.3,1.6-0.5,2.4
	c-2.1,2.6-4,5.5-5.1,8.6c-2.1,5.4-2.2,11.7-2.7,17.6c-2.8,4.1-5.5,8.3-7.9,12.6c-0.2,0.4-0.5,0.8-0.7,1.3c-3.2,2.1-6.7,3.9-9.6,6.5
	c-3.7,3.2-5.3,8.3-5.8,13c-0.5,4.5-0.1,9,0.5,13.4c-0.2,1-0.5,2-0.7,3c-3.4,1.6-6.6,4.3-6.6,8c0,3.2,1.2,5.1-1.3,8.1
	c-1.7,2-4.2,2.9-5.7,5.2c-3.5,5.5-1.6,10.7,0,16.5c0.5,2.1,0.5,4.1,0.3,6.2c-0.2,0.2-0.4,0.4-0.6,0.6c-0.9,1-0.9,2.3-0.1,3.3
	c-0.5,2.1-1,4.2-1.3,6.4c-4.2,3.2-7.6,7.2-7.9,12.7c-0.5,9.7,4.2,17.5,10.2,24.9c-0.6,0.6-1.2,1.2-1.8,1.7c-0.7,0.7-1.1,2.1-0.4,3
	c1.9,2.6,5.2,4.3,7.6,6.6c0.5,1.6,1.2,3.2,1.9,4.8c0.2,0.4,0.4,0.9,0.6,1.3c-0.2,5.2-2.6,9.4,1.8,13.6c1,0.9,2.2,1.6,3.4,2.2
	c0.3,0.6,0.7,1.2,1.2,1.8c0.6,0.8,1.4,1.4,2.2,2c0.2,1.7-0.3,3.5-0.5,5.1c-0.4,4.4,1.6,7,5.7,8.2c3.1,0.9,4.4-3.9,1.3-4.8
	c-3.2-0.9-2.1-3.2-1.7-5.6c0-0.1,0-0.1,0-0.2c1.5,0.7,2.9,1.4,4.2,2.3c0.4,3.3,1,6.7,1.9,10c1,4,2,8.2,3.5,11.9
	c0.6,1.4,1.1,2.8,1.5,4.2c0.8,2.6-0.4,4.2-1.2,6.5c-1.6,4.7,0.7,8.9,5.2,10.6c6.7,2.6,14.6-6.6,6.6-10.5c-2.9-1.4-5.4,2.9-2.5,4.3
	c1.2,0.6,1.1,0.7-0.2,1.2c-1.8,0.7-3.4,0-4.4-1.6c-1.1-1.7,1-4.6,1.6-6.4s0.1-3.8-0.3-5.6c-0.2-1.2-0.6-2.4-0.9-3.6
	c0.3,0.5,0.6,1,0.9,1.4c4.5,5.5,11,8.2,15.8,13.1c-2.8,5.7-4.5,11.4,3.5,14.9c2.9,1.3,5.5-3.1,2.5-4.3c-3.5-1.5-3.8-3.8-2.9-6.4
	c0.3,0.6,0.6,1.2,0.9,1.8c0.9,2.2,3.5,1.4,4.3-0.4c0.1,0.3,0.3,0.6,0.6,0.9c5.3,5.3,12,0.7,9.8-6.3c-0.5-1.6-1.8-2.9-2.8-4.1
	c-2-2.4-1.7-5.1-1.3-8c0-0.4,0.1-0.8,0.1-1.2c2,1.8,3.9,3.4,5.7,4.8c0.6,1.6,1.5,3.1,2.6,4.9c1.9,3,2.2,6-0.3,8.5
	c-1.7,1.7-2.8,3.6-3.4,6c-0.7,3.1,4.1,4.5,4.8,1.3c0.9-3.9,5.2-5.6,5.4-9.8c0.1-1.5-0.1-3-0.5-4.4c1.2,0.8,1.9,1.2,1.9,1.2
	c2.7,1,5,0.8,7,0c-0.7,1-1.4,2-2.1,3c-0.9,1.3-3.1,5-4.8,5.4c-3.1,0.7-1.8,5.5,1.3,4.8c3.9-0.9,7-6.5,9.1-9.5
	c1.2-1.8,2.4-3.7,3.2-5.7c0.7-1.8,0.7-3.7,0.7-5.5c1.2-2.3,1.8-4.1,1.8-4.1l0.3-1.8c0.8-0.8,0.9-1.8,0.5-2.6l3.7-19.3l2.4-27.4
	c-1-7.1-4.9-29.6-4.9-29.6c-2.5,3.6-5.6,3-5.6,3c-11.7-6.6-14.7-21.8-14.7-21.8c-11.2-27.4-1.5-57.9-1.5-57.9
	c5.6-3,11.2,8.1,11.2,8.1c2.5,3,14.7,14.2,14.7,14.2c5.1,5.6,0.5,40.6,0.5,40.6l5.1,1.5l8.6-45.2c1-11.2,9.1-24.4,9.1-24.4
	c7.1-5.6,19.8-24.4,19.8-24.4c5.6-12.2,11.2-19.8,11.2-19.8c8.1-2,37.1,7.4,50.8,3.6c18.3-5.1,37.6-0.5,44.7,1
	c0.7,0.2,1.8,0.5,3.1,0.9c-0.4,4.6,0.2,9.3,3.4,12.9c3.1,3.5,7.2,5.8,10.4,9.2c3.4,3.7,3.1,8.3,4.6,12.7c1.7,5.1,6.2,7.5,11.1,8.8
	c1.7,0.5,2.9-0.8,3.1-2.2c0.6,3,2.5,5.6,5.6,7.8c-0.8,3.3-4.3,1.5-7.2-0.1c-2.8-1.6-5.3,2.7-2.5,4.3c4.2,2.4,10.5,4.8,13.7-0.4
	c1.6-2.6,1.6-5.9,1.1-9.2c0.9,1,2,1.8,3.2,2.6c0,0,0,0,0.1,0c-0.7,16.6-3.2,36-3.2,36C430.6,187.5,409.7,122,409.7,122z M99.2,154.8
	L99.2,154.8L99.2,154.8L99.2,154.8z M90.5,223c-0.8-0.6-1.7-1.1-2.6-1.5c0.2-1,0.4-2,0.6-3c0.5-0.6,1.1-1.3,1.6-1.9
	C90.3,218.7,90.4,220.8,90.5,223z M89.3,190.4c0,1.3-0.1,2.6-0.1,4c-0.3,1.1-0.6,2.3-1,3.4c-0.2,0.1-0.5,0.2-0.7,0.3
	c-0.5-2.4-1-4.7-1.4-7.1c1-0.2,2-0.4,3-0.6C89.2,190.4,89.2,190.4,89.3,190.4z M88.8,183.5c0.1,0.7,0.2,1.3,0.3,2
	c-0.4,0.1-0.8,0.1-1.2,0.2C88.2,185,88.5,184.3,88.8,183.5z M86.8,164.6c-0.5,1-1,2-1.5,3C85.7,166.6,86.2,165.6,86.8,164.6z
	 M86.9,275.6c0.5,1.7,0.9,3.4,1.3,5.1c-0.6,0.8-1.3,1.5-2.3,1.9c-2,0.8-2.7-3.5-2.8-5.2c0.5-0.2,1-0.4,1.4-0.6
	C85.1,276.4,85.9,276.1,86.9,275.6z M83,256.5c-0.4-0.5-0.8-1.1-1.2-1.6c0.2-0.3,0.5-0.5,0.7-0.8c0.3,0.1,0.7,0.1,1,0.1
	C83.3,254.9,83.2,255.7,83,256.5z M84,215.2c-0.4,0.6-0.9,1.4-1.2,2.1c-0.2-0.3-0.3-0.6-0.5-0.9c0.7-1.5,1.5-3,2.3-4.4
	C84.5,213,84.3,214.1,84,215.2z M82.7,199.4c0.1,0.3,0.1,0.6,0.2,0.8c-0.2,0.1-0.4,0.2-0.6,0.3C82.4,200.2,82.6,199.8,82.7,199.4z
	 M81.3,207.3c0-0.3,0-0.5,0-0.8c0.5-0.3,1-0.6,1.5-0.9c-0.6,0.7-1.1,1.4-1.6,2.1C81.3,207.6,81.3,207.5,81.3,207.3z M78.8,227.8
	c1.2-0.9,2.3-1.8,3.4-2.7c-0.4,2.1-0.7,4.2-1,6.3c-1,0.7-1.9,1.3-2.9,1.9C78.2,231.5,78.4,229.6,78.8,227.8z M75.2,212.3
	c0.2-0.3,0.4-0.6,0.6-0.9c0.2,0.2,0.4,0.3,0.6,0.5c0.1,1.4,0.4,2.8,0.7,4.1c-0.3,0.7-0.5,1.4-0.8,2.1c-0.1,0-0.2-0.1-0.2-0.1
	C72.9,216.8,73.7,214.8,75.2,212.3z M76.2,248.7c-1,0.3-2.1,0.6-3.1,0.9c-0.2-2.1-0.1-4,0.6-5.4c0.3-0.7,0.9-1.3,1.6-1.9
	C76.1,244.4,76.9,246.2,76.2,248.7z M60.8,257.2c-0.1-3.2,1.1-5.9,3-8.2c0.2,1.3,0.4,2.6,0.7,3.9C62.9,254.1,61.6,255.6,60.8,257.2z
	 M65.9,258.1c0.1-0.1,0.1-0.1,0.2-0.2c0.6,1.7,1.2,3.3,1.9,4.9c-0.2,0.9-0.3,1.8-0.3,2.8C65.6,263.1,64.1,260.2,65.9,258.1z
	 M67.1,272.7c0.2,0.3,0.4,0.5,0.7,0.8c0.2,0.2,0.4,0.5,0.5,0.7c0,0.1,0,0.2,0,0.3l0,0C67.9,273.8,67.5,273.3,67.1,272.7z
	 M68.5,245.1V245c0-0.1,0-0.1,0-0.2l0.1-0.1C68.6,244.9,68.5,245,68.5,245.1z M69.1,238.8c0.1-0.2,0.1-0.5,0.2-0.7
	c0.2,0.1,0.5,0.1,0.7,0.2C69.7,238.4,69.4,238.6,69.1,238.8z M71,227.4c-0.3-4.6-3.3-9.2-2-13.3c-0.3,1.7-0.2,3.5,0.8,5.2
	c1,1.8,2.9,3,5.1,3.8c-0.2,0.8-0.4,1.5-0.6,2.3c-1.1,0.8-2.2,1.5-3.3,2.3C71,227.6,71,227.5,71,227.4z M71.3,233.7
	c0.7-0.6,1.4-1.3,2.2-1.9c0,0.8,0,1.7,0,2.5C72.7,234.2,72,234,71.3,233.7z M73.7,276.7c0-0.2-0.1-0.4-0.1-0.6
	c0.1-1.1-0.1-2.2-0.5-3.4c-0.2-1.5-0.4-2.9-0.5-4.4c1.3-0.5,2.4-2,1.6-3.7c-0.4-0.8-0.7-1.5-1.1-2.3c0.1-0.2,0.1-0.4,0.2-0.6
	c0.5,0.5,0.9,0.9,1.4,1.3c0.1,0.1,0.3,0.2,0.5,0.2c2.1,1.5,4.9,2.7,7.6,3.7c0,0.2,0.1,0.4,0.1,0.7c-0.8,0.7-1.6,1.4-2.2,2.2
	c-1.1,1.3-1.8,2.7-2.2,4.1c-0.4,0.2-0.8,0.3-1.2,0.5C76,275,74.7,275.7,73.7,276.7z M77.9,284.2c-0.4-1.1-1.5-3.6-0.3-4.4
	c0.2-0.1,0.4-0.2,0.6-0.4c0.1,0.5,0.2,1.1,0.3,1.6c0.9,3.6,3.6,7.2,7.7,6.5c1-0.2,2-0.5,2.8-1c-1.5,3-2.9,6.4-3.4,9.8
	c-0.1-0.1-0.1-0.2-0.2-0.3c0-0.7-0.4-1.4-1.2-1.8c-1.5-2.2-3.2-4.2-4.9-6.3C78.8,286.7,78.3,285.3,77.9,284.2z M87.9,314.2
	c-0.5-0.2-0.9-0.5-1.3-0.7c-0.7-1.5-1.9-2.5-3.1-3.4c-0.4-0.9-0.8-2-1-3.4c-0.6-3.4-1.3-6.1-2.8-9.2c-0.1-0.2-0.2-0.4-0.3-0.6
	c0.5,0.4,1,0.8,1.4,1.1c2.3,3.4,4.3,7,5.5,10.8c0.4,1.2,0.6,2.4,0.8,3.7c0.4,2.2,2.7,2.2,4,1c0,0.7,0,1.5,0.1,2.2
	C90.1,315.3,89,314.7,87.9,314.2z M92.1,276c-0.3-1-0.6-2-0.9-3c1-0.7,1.8-1.5,2.3-2.4c0.1,2.1,0.3,4.1,0.5,6.1
	C93.5,276.3,92.8,276,92.1,276z M95.8,217.8c-0.2,0.5-0.3,1-0.5,1.5c-0.2-2.3-0.4-4.6-0.7-6.9c0.7-0.5,1.3-1,1.8-1.6
	C96.2,213.2,96,215.5,95.8,217.8z M95.9,173.1c-0.3,0.7-0.3,1.3-0.2,1.9c-0.7,2-1.5,3.9-2.2,5.9c-0.3-2-0.8-4-1.1-5.9
	c-0.1-0.4-0.2-0.9-0.3-1.4c0.3-1.4,0.6-2.9,0.9-4.3c0.7-0.6,1.6-1.1,2.1-1.6c1.8-1.5,3.5-3.1,5-4.9
	C98.9,166.4,97.5,169.8,95.9,173.1z M98.9,187.3c0,0.1,0,0.3-0.1,0.4c-0.1,0.2-0.2,0.3-0.3,0.5c-0.1,0.2-0.2,0.3-0.2,0.5
	C98.5,188.2,98.7,187.8,98.9,187.3z M97.6,198.6c0,0.1,0,0.2,0,0.3C97.5,198.8,97.5,198.8,97.6,198.6
	C97.5,198.7,97.5,198.6,97.6,198.6z M98.9,332.4c-0.6-2-1.1-4-1.5-6.1c0.1,0,0.2,0,0.2-0.1c1.4,3.1,2.5,6.3,3,9.8
	c0.1,0.9,0.3,1.8,0.5,2.7C100.3,336.7,99.5,334.5,98.9,332.4z M101.8,322.9c-0.2-0.5-0.4-1-0.6-1.4c0.3-0.1,0.6-0.3,0.9-0.6
	C102,321.6,101.9,322.2,101.8,322.9z M98.1,293.9c1,2.8,2.1,5.6,3.4,8.3c-0.2,5.3,0.8,10.6,0.8,15.9
	C98.5,313.4,95.9,301.7,98.1,293.9z M120.6,331c-1,2.3-1.7,4.7-1.7,7.6c-1.1-2.1-2-4.2-2.7-6.4c-0.8-2.4-0.8-5-0.9-7.6
	C117,326.9,118.8,329,120.6,331z M114.8,119.7c0.4,0.7,1.2,1.1,2.1,1.1c-1,1.1-1.9,2.2-2.9,3.4C114.3,122.7,114.6,121.2,114.8,119.7
	z M108.5,315.1c-0.6,0.9-1,1.8-1.4,2.7c0-1.8-0.1-3.6-0.3-5.4C107.4,313.3,107.9,314.2,108.5,315.1z M121.7,352.9
	c-3.2-3.1-7.1-5.7-10.8-8.3c-2.5-1.8-4.1-3.3-4.9-6.3c-1-3.9-1.3-7.8-2.7-11.6c0.7,0.3,1.6,0.2,2.2-0.2c0,3,4.4,3.1,4.9,0.4
	c0.1,1.5,0.3,3,0.5,4.5C112.1,339,117.5,346.4,121.7,352.9C121.8,352.8,121.7,352.9,121.7,352.9z M120.6,110.5
	c0.1-0.5,0.2-0.9,0.3-1.4c0.5-0.5,1.1-1,1.6-1.5C121.9,108.6,121.3,109.5,120.6,110.5z M126.6,95.7c1.3-0.2,2.6-0.4,3.8-0.6
	c-2,1.6-4,3.2-6,4.8C125.1,98.4,125.9,97,126.6,95.7z M131.8,360.6c-1.4-1.4-3.3-0.6-4,0.8c0-0.1-0.1-0.2-0.1-0.3
	c-0.7-1.6-1.6-3.1-2.6-4.4c1.5-2.5,2.9-4.9,2.9-7.1c0-3.6-1.9-6.1-3.6-9.1c-1-1.7-0.9-3.7-0.4-5.6c1.7,1.8,3.4,3.5,5,5.1
	c0.4,3.2-0.4,6.3-0.4,9.8c0,1.8,0.4,3.4,1.2,5.1c0.3,0.5,0.7,1,1.1,1.5c0.3,0.3,0.5,0.7,0.8,1C133.3,358.3,133.3,359.4,131.8,360.6z
	 M147.9,71.1c-0.7,1-0.5,1.9,0,2.6c-3.1,4.3-6.1,8.9-9.4,13.1c-2.6,1.6-5.3,2.7-8.1,3.2c-0.1,0-0.2,0-0.2,0c5.9-8.5,13.6-16,21-23
	C150,68.3,148.9,69.7,147.9,71.1z M174.1,53.7c-5.9,1-10.7,3.6-14.8,7.1c-2,1.2-4,2.6-5.8,4.1c0.3-0.3,0.7-0.7,1-1
	c4.1-3.9,8.2-7.7,12.2-11.7c0.1-0.1,0.2-0.2,0.3-0.3c0.6,0,1.2-0.2,1.7-0.8c0.9-0.9,1.8-1.7,2.7-2.4c1-0.5,2.1-0.8,3.2-1.1
	c-0.5,1.2-0.8,2.6-1.1,4.1C173.5,52.5,173.7,53.2,174.1,53.7z M178.7,51.9c0.4-1.8,1.1-3.3,1.9-4.7c0.3,0,0.5,0,0.8,0
	c1.6,0.1,3.2,0.3,4.7,0.4C183.6,49,181.1,50.4,178.7,51.9z M194.1,43.9c-2.2-0.3-4.5-0.6-6.7-1c4.5-0.7,9.1-1.1,13.3-1.7
	C198.4,42.1,196.2,42.9,194.1,43.9z M205.3,39.7c0.2-0.5,0.2-1.1,0.1-1.7c2,0,3.9,0,5.8,0C209.2,38.5,207.2,39.1,205.3,39.7z
	 M220.1,32.9c6.1-1.7,12.7-1.5,19-0.7C232.8,32.2,226.4,32.7,220.1,32.9z M363.2,172c-0.7-1.5-1.4-2.9-2.1-4.4
	c1.3,0.8,2.6,1.7,2.6,2.5C363.7,170.6,363.5,171.3,363.2,172z M354,156.4c2.6,1.4,5.1,2.8,7.4,4.3c0.1,0.5,0.3,1.1,0.5,1.6
	c-1.8-1.1-3.7-2.1-5.4-3.1c-0.3-0.2-0.6-0.4-0.9-0.5C355,157.8,354.5,157.1,354,156.4z M330.4,145.9c1.2,0.5,2.6,1,4,1.5
	c0.3,0.2,0.6,0.3,1,0.4c0,0,0,0,0.1,0c0.4,0.2,0.9,0.4,1.4,0.6c0.3,2.2,0.2,4.8,0.6,7.5c0.1,0.9,0.3,1.7,0.5,2.5
	c-0.9-0.7-1.9-1.5-2.8-2.2C331.5,153.3,330.3,150,330.4,145.9z M357.8,184.4c-0.2-0.6-0.8-1.1-1.6-1.4c-5.1-1.4-7.5-3.6-8.5-8.7
	c-0.2-1.1-0.4-2.1-0.7-3c0.9,0.6,1.8,1.2,2.7,1.8c2.8,1.7,5.3-2.7,2.5-4.3c-4.3-2.6-7.9-5.8-9.4-10.7c-0.8-2.4-0.8-4.9-0.9-7.5
	c1.3,0.9,2.6,1.9,3.8,3.1c-0.2,0.9-0.1,1.9,0.5,3c1.3,2.6,3.9,4.5,6.6,6.2c2.6,4.3,4.7,8.7,6.4,12.4c0.2,0.5,0.5,1.1,0.7,1.7
	c-0.2,0.3-0.4,0.6-0.5,0.8C358.2,180.1,357.7,182.3,357.8,184.4z M366.4,180.1c-0.1-0.3-0.2-0.7-0.3-1c-0.2-0.5-0.4-1.1-0.6-1.6
	c2.2-3.4,4.5-6.9,2.3-10.3c0.5,0.4,1,0.9,1.3,1.5C371.2,172,367.5,176.5,366.4,180.1z M372,179.2c0,1.5,0,3.1,0,4.8
	C371.2,182.5,371.4,180.9,372,179.2z"/>
<g>
</g>
<g>
</g>
<g>
</g>
<g>
</g>
<g>
</g>
<g>
</g>
<g>
</g>
<g>
</g>
<g>
</g>
<g>
</g>
<g>
</g>
<g>
</g>
<g>
</g>
<g>
</g>
<g>
</g>
</svg>
